<svg width="106" height="38" viewBox="0 0 106 38" fill="none" xmlns="http://www.w3.org/2000/svg">
<path fill-rule="evenodd" clip-rule="evenodd" d="M43.2108 22.1471C43.1375 22.2192 43.1101 22.8465 43.1101 24.4524C43.1101 26.3479 43.1287 26.6768 43.2419 26.7883C43.3503 26.8948 43.602 26.9179 44.6518 26.9179C45.9976 26.9179 46.1312 26.8839 46.1312 26.5401C46.1312 26.2375 45.9535 26.1816 44.9132 26.1572L43.9155 26.1338L43.9239 25.9068C43.9286 25.7819 43.9363 25.6427 43.9409 25.5973C43.9458 25.549 44.2606 25.5148 44.6986 25.5148C45.4836 25.5148 45.7116 25.4243 45.7116 25.1127C45.7116 24.8347 45.5306 24.7719 44.7297 24.7719H43.9493V23.7814V22.7909H44.9395C45.9794 22.7909 46.1312 22.7436 46.1312 22.4195C46.1312 22.0818 45.9942 22.0481 44.6206 22.0481C43.7143 22.0481 43.2805 22.0785 43.2108 22.1471ZM64.9456 22.1471C64.8723 22.2193 64.8449 22.8547 64.8449 24.4895C64.8449 26.374 64.8649 26.7489 64.9697 26.8345C65.1496 26.9813 65.5154 26.8712 65.5198 26.6688C65.5217 26.5788 65.5248 26.1491 65.5267 25.7137C65.5306 24.8336 65.6152 24.4986 65.8793 24.3166C66.1689 24.1171 66.6344 24.1609 66.8895 24.4117C67.1045 24.6232 67.1107 24.6578 67.1107 25.6439C67.1107 26.7137 67.1772 26.9179 67.526 26.9179C67.8379 26.9179 67.8835 26.7258 67.8531 25.538C67.821 24.2829 67.7496 24.0876 67.1765 23.6862C66.8973 23.4906 66.2116 23.4282 65.747 23.556L65.5162 23.6195V22.8839C65.5162 22.2893 65.4908 22.1387 65.3835 22.0982C65.1843 22.023 65.0574 22.0372 64.9456 22.1471ZM68.638 22.1471C68.5826 22.2016 68.5373 22.3494 68.5373 22.4757C68.5373 22.9072 69.2147 22.8901 69.2795 22.457C69.3275 22.1371 68.8719 21.9171 68.638 22.1471ZM70.1275 22.2208C70.0639 22.3377 70.0427 22.962 70.0617 24.1536L70.0898 25.9136L70.3446 26.2713C70.827 26.9485 71.4768 27.104 71.543 26.5582C71.5639 26.386 71.5145 26.308 71.3125 26.1951C70.8532 25.9381 70.8031 25.7112 70.8031 23.8886C70.8031 22.7212 70.774 22.2175 70.7024 22.1471C70.5432 21.9905 70.2311 22.0306 70.1275 22.2208ZM74.3756 22.1777C74.2784 22.2734 74.2437 22.4757 74.2437 22.9476V23.5878L73.8426 23.5069C73.3019 23.3979 72.9186 23.4825 72.5318 23.7962C72.1121 24.1363 71.9779 24.4709 71.9779 25.1766C71.9779 25.8415 72.0676 26.1242 72.3819 26.4501C73.0344 27.1267 74.1284 27.0498 74.7214 26.2857L74.957 25.982L74.9838 24.1336C75.0117 22.2098 74.9866 22.0481 74.659 22.0481C74.5757 22.0481 74.4481 22.1064 74.3756 22.1777ZM86.2412 22.2184C86.1902 22.312 86.0039 22.7856 85.8272 23.2707C85.6505 23.7559 85.3306 24.61 85.1166 25.1688C84.6519 26.3817 84.5937 26.6285 84.7333 26.794C84.8641 26.9489 85.1852 26.9549 85.3119 26.8049C85.3644 26.7426 85.4981 26.4362 85.609 26.1239L85.8107 25.556L86.5632 25.5324L87.3157 25.5088L87.5458 26.1295C87.6725 26.4709 87.8258 26.7908 87.8865 26.8404C88.0387 26.9646 88.3478 26.9066 88.4583 26.7331C88.5603 26.5729 88.5906 26.6709 87.66 24.1529C86.8705 22.017 86.8864 22.0481 86.584 22.0481C86.4172 22.0481 86.303 22.1048 86.2412 22.2184ZM89.2818 22.1471C89.2085 22.2193 89.1811 22.8533 89.1811 24.483C89.1811 26.1127 89.2085 26.7468 89.2818 26.8189C89.3498 26.8858 89.7356 26.9179 90.4678 26.9179C91.4093 26.9179 91.5893 26.8959 91.8267 26.7515C92.3748 26.4183 92.5095 25.6874 92.1185 25.1674L91.9464 24.9382L92.114 24.615C92.4889 23.8923 92.4069 23.1796 91.883 22.6085C91.7124 22.4226 91.4513 22.2204 91.3028 22.1593C90.9554 22.0162 89.4243 22.0071 89.2818 22.1471ZM93.1421 22.1471C92.9848 22.3018 92.9997 26.6987 93.1579 26.8278C93.2361 26.8916 93.6275 26.9154 94.3448 26.8999C95.515 26.8745 95.6371 26.8227 95.5285 26.3972C95.4742 26.1847 95.4595 26.1806 94.656 26.1574L93.8386 26.1338L93.816 24.2007C93.8013 22.944 93.7611 22.2292 93.7009 22.1579C93.5855 22.0212 93.2762 22.0152 93.1421 22.1471ZM96.247 22.1471C96.1738 22.2192 96.1463 22.8465 96.1463 24.4524C96.1463 26.3479 96.1649 26.6768 96.2782 26.7883C96.3867 26.895 96.6399 26.9179 97.7066 26.9179H99.0032L99.1017 26.7052C99.1718 26.554 99.1747 26.4524 99.1119 26.3544C99.0387 26.24 98.849 26.2124 98.0045 26.1932L96.9855 26.17V25.8424V25.5148H97.7278C98.3403 25.5148 98.4943 25.4884 98.6089 25.3638C98.6853 25.2808 98.7478 25.1582 98.7478 25.0914C98.7478 24.836 98.5507 24.7719 97.766 24.7719H96.9855V23.784V22.7961L98.0117 22.7729L99.0377 22.7497L99.117 22.5276C99.2715 22.0948 99.1299 22.0481 97.6634 22.0481C96.752 22.0481 96.3168 22.0785 96.247 22.1471ZM99.9436 22.1396C99.8649 22.2195 99.8387 22.8067 99.8387 24.4895C99.8387 26.3727 99.8587 26.749 99.9634 26.8344C100.174 27.0061 101.238 26.9065 101.713 26.6707C102.576 26.2419 103.029 25.4783 103.026 24.4555C103.024 23.7379 102.877 23.3338 102.44 22.8443C101.967 22.3149 101.504 22.1045 100.728 22.0663C100.245 22.0426 100.018 22.0638 99.9436 22.1396ZM91.0264 22.9143C91.5895 23.2007 91.7165 23.9047 91.2897 24.3745C91.0819 24.6032 90.9767 24.6468 90.5308 24.6887C90.2461 24.7154 89.9959 24.7204 89.9748 24.6996C89.9537 24.6789 89.9364 24.2409 89.9364 23.7264V22.7909H90.3602C90.5932 22.7909 90.8931 22.8464 91.0264 22.9143ZM101.203 22.9117C101.948 23.2179 102.323 23.8347 102.255 24.6417C102.193 25.3867 101.591 26.0315 100.888 26.1068L100.636 26.1338L100.613 24.4624C100.588 22.5876 100.564 22.6492 101.203 22.9117ZM68.5933 23.3412C68.4871 23.4456 68.5292 26.7118 68.638 26.8189C68.7922 26.9705 69.1086 26.9368 69.2057 26.7583C69.3336 26.5232 69.3213 23.5125 69.1919 23.3852C69.0842 23.2793 68.686 23.25 68.5933 23.3412ZM46.638 23.4886C46.5742 23.5641 46.5497 23.7146 46.5783 23.855C46.6488 24.2014 47.7134 26.6912 47.8485 26.8255C47.916 26.8925 48.0438 26.9194 48.1593 26.891C48.3224 26.8507 48.458 26.5977 48.9636 25.3895C49.633 23.7904 49.6941 23.4846 49.3609 23.4023C49.2449 23.3737 49.0979 23.3928 49.0341 23.4449C48.9704 23.4969 48.739 23.9653 48.5198 24.4858C48.3007 25.0063 48.0985 25.4319 48.0703 25.4315C48.0423 25.4311 47.8282 24.976 47.5946 24.4204C47.2223 23.5345 47.1438 23.4069 46.9581 23.3851C46.8415 23.3715 46.6975 23.4181 46.638 23.4886ZM50.8683 23.4849C50.544 23.6238 50.203 24.02 50.0722 24.4096C49.9135 24.8828 50.0072 25.8608 50.2437 26.2003C50.7127 26.8734 51.5504 27.0975 52.2522 26.7376C52.4572 26.6325 52.699 26.4465 52.7896 26.3242C52.9452 26.114 52.9466 26.0906 52.8135 25.8909C52.6323 25.6189 52.5182 25.625 52.1313 25.9275C51.6352 26.3153 51.1095 26.223 50.8375 25.7005L50.7408 25.5148H51.6724C52.8594 25.5148 52.9285 25.4798 52.9285 24.8795C52.9285 23.7685 51.8734 23.0542 50.8683 23.4849ZM54.6069 23.4612C54.3389 23.5661 53.9544 23.9241 53.8022 24.2106C53.6472 24.5025 53.6325 26.6694 53.7845 26.8189C53.9299 26.9619 54.1403 26.9407 54.3002 26.767C54.414 26.6432 54.439 26.4272 54.439 25.5663C54.439 24.537 54.4434 24.5124 54.6611 24.314C54.8068 24.1812 54.9818 24.1116 55.1701 24.1116C55.328 24.1116 55.5302 24.0731 55.6194 24.0262C55.8009 23.9307 55.8352 23.6194 55.681 23.4678C55.561 23.3497 54.9024 23.3457 54.6069 23.4612ZM56.4699 23.4678C56.4016 23.5349 56.3692 23.9216 56.3692 24.6679C56.3692 25.9554 56.4796 26.2736 57.0568 26.6496C57.3417 26.8351 57.4988 26.8765 57.9154 26.8759C58.1957 26.8756 58.4913 26.8437 58.572 26.8053C58.6887 26.7497 58.7189 26.7721 58.7189 26.9146C58.7189 27.1855 58.5743 27.3972 58.2906 27.5414C57.9398 27.7198 57.5913 27.6277 57.3111 27.2824C56.9017 26.7776 56.2782 27.0081 56.5685 27.5569C56.837 28.0646 57.3181 28.3447 57.9216 28.3447C58.4567 28.3447 58.9131 28.1367 59.2061 27.759L59.4322 27.4678L59.4575 25.4876C59.4845 23.3767 59.4837 23.3727 59.0734 23.37C58.7931 23.3681 58.7189 23.6551 58.7189 24.7424C58.7189 25.6825 58.7163 25.6951 58.4736 25.9338C58.158 26.2442 57.7386 26.2608 57.4019 25.9761C57.1689 25.7791 57.1661 25.7654 57.1384 24.6762C57.1229 24.0706 57.0711 23.5288 57.0231 23.472C56.9125 23.3408 56.6013 23.3385 56.4699 23.4678ZM62.5371 23.4862C61.9287 23.7544 61.5758 24.3627 61.5758 25.1433C61.5758 26.4717 62.7391 27.3042 63.8304 26.7566C64.2116 26.5653 64.3014 26.3292 64.0904 26.073C63.9417 25.8924 63.933 25.8916 63.6338 26.032C62.8839 26.3837 62.3274 26.0051 62.3274 25.1433C62.3274 24.3088 62.9071 23.89 63.5849 24.2348C63.8586 24.374 64.0546 24.3301 64.1788 24.1018C64.4471 23.6087 63.2649 23.1653 62.5371 23.4862ZM78.2256 23.4849C77.2513 23.9023 77.0261 25.614 77.8357 26.4501C78.4553 27.0901 79.5666 27.0522 80.11 26.3726C80.3258 26.1029 80.3302 25.9926 80.1323 25.8165C79.9229 25.63 79.8541 25.6418 79.4886 25.9275C79.1314 26.2066 78.8262 26.2407 78.5213 26.0354C78.2794 25.8727 78.191 25.7614 78.1891 25.6179C78.1882 25.5413 78.4358 25.5148 79.151 25.5148C80.0884 25.5148 80.1178 25.5092 80.2531 25.3062C80.5601 24.8453 80.0888 23.7339 79.4802 23.4838C79.1309 23.3402 78.5621 23.3407 78.2256 23.4849ZM81.8105 23.5458C81.5981 23.6493 81.3539 23.861 81.223 24.0552C81.0134 24.3665 80.9974 24.4573 80.9718 25.4814C80.9422 26.6654 81.0036 26.9179 81.321 26.9179C81.6695 26.9179 81.7124 26.7812 81.7124 25.6721C81.7124 24.6297 81.7137 24.6229 81.9559 24.368C82.281 24.0256 82.7302 24.0117 83.0715 24.3334C83.3051 24.5535 83.3069 24.563 83.3069 25.5999C83.3069 26.5073 83.3271 26.6627 83.4604 26.7813C83.6707 26.9685 83.8601 26.9526 84.0154 26.7345C84.1734 26.5126 84.1961 25.2568 84.0537 24.6043C83.8299 23.5775 82.7714 23.078 81.8105 23.5458ZM86.8267 24.1795C86.9229 24.4211 86.98 24.6533 86.9535 24.6954C86.8926 24.7923 86.2692 24.7962 86.2088 24.7C86.1466 24.601 86.5218 23.6084 86.5937 23.6815C86.6256 23.7137 86.7303 23.9378 86.8267 24.1795ZM51.9672 24.3142C52.3435 24.6842 52.2545 24.7719 51.5019 24.7719C50.891 24.7719 50.8306 24.7574 50.8306 24.61C50.8306 24.146 51.5942 23.9472 51.9672 24.3142ZM79.3566 24.3291C79.6652 24.7149 79.6011 24.7719 78.8592 24.7719C78.2856 24.7719 78.1879 24.7517 78.1879 24.6327C78.1879 24.5562 78.2699 24.4077 78.3703 24.3026C78.6351 24.0254 79.1243 24.0385 79.3566 24.3291ZM73.9153 24.2999C74.146 24.4741 74.2437 24.7462 74.2437 25.2142C74.2437 25.5811 74.2024 25.7154 74.0265 25.9211C73.7465 26.2484 73.25 26.2783 72.9526 25.9857C72.5749 25.6142 72.6076 24.5954 73.006 24.321C73.2249 24.1702 73.7281 24.1585 73.9153 24.2999ZM91.5163 25.7463C91.5665 26.0945 91.4017 26.1751 90.6395 26.1751H89.9364V25.8418V25.5086L90.7127 25.5323C91.451 25.5549 91.4902 25.5654 91.5163 25.7463Z" fill="#737373"/>
<path fill-rule="evenodd" clip-rule="evenodd" d="M43.2108 22.1471C43.1375 22.2192 43.1101 22.8465 43.1101 24.4524C43.1101 26.3479 43.1287 26.6768 43.2419 26.7883C43.3503 26.8948 43.602 26.9179 44.6518 26.9179C45.9976 26.9179 46.1312 26.8839 46.1312 26.5401C46.1312 26.2375 45.9535 26.1816 44.9132 26.1572L43.9155 26.1338L43.9239 25.9068C43.9286 25.7819 43.9363 25.6427 43.9409 25.5973C43.9458 25.549 44.2606 25.5148 44.6986 25.5148C45.4836 25.5148 45.7116 25.4243 45.7116 25.1127C45.7116 24.8347 45.5306 24.7719 44.7297 24.7719H43.9493V23.7814V22.7909H44.9395C45.9794 22.7909 46.1312 22.7436 46.1312 22.4195C46.1312 22.0818 45.9942 22.0481 44.6206 22.0481C43.7143 22.0481 43.2805 22.0785 43.2108 22.1471ZM64.9456 22.1471C64.8723 22.2193 64.8449 22.8547 64.8449 24.4895C64.8449 26.374 64.8649 26.7489 64.9697 26.8345C65.1496 26.9813 65.5154 26.8712 65.5198 26.6688C65.5217 26.5788 65.5248 26.1491 65.5267 25.7137C65.5306 24.8336 65.6152 24.4986 65.8793 24.3166C66.1689 24.1171 66.6344 24.1609 66.8895 24.4117C67.1045 24.6232 67.1107 24.6578 67.1107 25.6439C67.1107 26.7137 67.1772 26.9179 67.526 26.9179C67.8379 26.9179 67.8835 26.7258 67.8531 25.538C67.821 24.2829 67.7496 24.0876 67.1765 23.6862C66.8973 23.4906 66.2116 23.4282 65.747 23.556L65.5162 23.6195V22.8839C65.5162 22.2893 65.4908 22.1387 65.3835 22.0982C65.1843 22.023 65.0574 22.0372 64.9456 22.1471ZM68.638 22.1471C68.5826 22.2016 68.5373 22.3494 68.5373 22.4757C68.5373 22.9072 69.2147 22.8901 69.2795 22.457C69.3275 22.1371 68.8719 21.9171 68.638 22.1471ZM70.1275 22.2208C70.0639 22.3377 70.0427 22.962 70.0617 24.1536L70.0898 25.9136L70.3446 26.2713C70.827 26.9485 71.4768 27.104 71.543 26.5582C71.5639 26.386 71.5145 26.308 71.3125 26.1951C70.8532 25.9381 70.8031 25.7112 70.8031 23.8886C70.8031 22.7212 70.774 22.2175 70.7024 22.1471C70.5432 21.9905 70.2311 22.0306 70.1275 22.2208ZM74.3756 22.1777C74.2784 22.2734 74.2437 22.4757 74.2437 22.9476V23.5878L73.8426 23.5069C73.3019 23.3979 72.9186 23.4825 72.5318 23.7962C72.1121 24.1363 71.9779 24.4709 71.9779 25.1766C71.9779 25.8415 72.0676 26.1242 72.3819 26.4501C73.0344 27.1267 74.1284 27.0498 74.7214 26.2857L74.957 25.982L74.9838 24.1336C75.0117 22.2098 74.9866 22.0481 74.659 22.0481C74.5757 22.0481 74.4481 22.1064 74.3756 22.1777ZM86.2412 22.2184C86.1902 22.312 86.0039 22.7856 85.8272 23.2707C85.6505 23.7559 85.3306 24.61 85.1166 25.1688C84.6519 26.3817 84.5937 26.6285 84.7333 26.794C84.8641 26.9489 85.1852 26.9549 85.3119 26.8049C85.3644 26.7426 85.4981 26.4362 85.609 26.1239L85.8107 25.556L86.5632 25.5324L87.3157 25.5088L87.5458 26.1295C87.6725 26.4709 87.8258 26.7908 87.8865 26.8404C88.0387 26.9646 88.3478 26.9066 88.4583 26.7331C88.5603 26.5729 88.5906 26.6709 87.66 24.1529C86.8705 22.017 86.8864 22.0481 86.584 22.0481C86.4172 22.0481 86.303 22.1048 86.2412 22.2184ZM89.2818 22.1471C89.2085 22.2193 89.1811 22.8533 89.1811 24.483C89.1811 26.1127 89.2085 26.7468 89.2818 26.8189C89.3498 26.8858 89.7356 26.9179 90.4678 26.9179C91.4093 26.9179 91.5893 26.8959 91.8267 26.7515C92.3748 26.4183 92.5095 25.6874 92.1185 25.1674L91.9464 24.9382L92.114 24.615C92.4889 23.8923 92.4069 23.1796 91.883 22.6085C91.7124 22.4226 91.4513 22.2204 91.3028 22.1593C90.9554 22.0162 89.4243 22.0071 89.2818 22.1471ZM93.1421 22.1471C92.9848 22.3018 92.9997 26.6987 93.1579 26.8278C93.2361 26.8916 93.6275 26.9154 94.3448 26.8999C95.515 26.8745 95.6371 26.8227 95.5285 26.3972C95.4742 26.1847 95.4595 26.1806 94.656 26.1574L93.8386 26.1338L93.816 24.2007C93.8013 22.944 93.7611 22.2292 93.7009 22.1579C93.5855 22.0212 93.2762 22.0152 93.1421 22.1471ZM96.247 22.1471C96.1738 22.2192 96.1463 22.8465 96.1463 24.4524C96.1463 26.3479 96.1649 26.6768 96.2782 26.7883C96.3867 26.895 96.6399 26.9179 97.7066 26.9179H99.0032L99.1017 26.7052C99.1718 26.554 99.1747 26.4524 99.1119 26.3544C99.0387 26.24 98.849 26.2124 98.0045 26.1932L96.9855 26.17V25.8424V25.5148H97.7278C98.3403 25.5148 98.4943 25.4884 98.6089 25.3638C98.6853 25.2808 98.7478 25.1582 98.7478 25.0914C98.7478 24.836 98.5507 24.7719 97.766 24.7719H96.9855V23.784V22.7961L98.0117 22.7729L99.0377 22.7497L99.117 22.5276C99.2715 22.0948 99.1299 22.0481 97.6634 22.0481C96.752 22.0481 96.3168 22.0785 96.247 22.1471ZM99.9436 22.1396C99.8649 22.2195 99.8387 22.8067 99.8387 24.4895C99.8387 26.3727 99.8587 26.749 99.9634 26.8344C100.174 27.0061 101.238 26.9065 101.713 26.6707C102.576 26.2419 103.029 25.4783 103.026 24.4555C103.024 23.7379 102.877 23.3338 102.44 22.8443C101.967 22.3149 101.504 22.1045 100.728 22.0663C100.245 22.0426 100.018 22.0638 99.9436 22.1396ZM91.0264 22.9143C91.5895 23.2007 91.7165 23.9047 91.2897 24.3745C91.0819 24.6032 90.9767 24.6468 90.5308 24.6887C90.2461 24.7154 89.9959 24.7204 89.9748 24.6996C89.9537 24.6789 89.9364 24.2409 89.9364 23.7264V22.7909H90.3602C90.5932 22.7909 90.8931 22.8464 91.0264 22.9143ZM101.203 22.9117C101.948 23.2179 102.323 23.8347 102.255 24.6417C102.193 25.3867 101.591 26.0315 100.888 26.1068L100.636 26.1338L100.613 24.4624C100.588 22.5876 100.564 22.6492 101.203 22.9117ZM68.5933 23.3412C68.4871 23.4456 68.5292 26.7118 68.638 26.8189C68.7922 26.9705 69.1086 26.9368 69.2057 26.7583C69.3336 26.5232 69.3213 23.5125 69.1919 23.3852C69.0842 23.2793 68.686 23.25 68.5933 23.3412ZM46.638 23.4886C46.5742 23.5641 46.5497 23.7146 46.5783 23.855C46.6488 24.2014 47.7134 26.6912 47.8485 26.8255C47.916 26.8925 48.0438 26.9194 48.1593 26.891C48.3224 26.8507 48.458 26.5977 48.9636 25.3895C49.633 23.7904 49.6941 23.4846 49.3609 23.4023C49.2449 23.3737 49.0979 23.3928 49.0341 23.4449C48.9704 23.4969 48.739 23.9653 48.5198 24.4858C48.3007 25.0063 48.0985 25.4319 48.0703 25.4315C48.0423 25.4311 47.8282 24.976 47.5946 24.4204C47.2223 23.5345 47.1438 23.4069 46.9581 23.3851C46.8415 23.3715 46.6975 23.4181 46.638 23.4886ZM50.8683 23.4849C50.544 23.6238 50.203 24.02 50.0722 24.4096C49.9135 24.8828 50.0072 25.8608 50.2437 26.2003C50.7127 26.8734 51.5504 27.0975 52.2522 26.7376C52.4572 26.6325 52.699 26.4465 52.7896 26.3242C52.9452 26.114 52.9466 26.0906 52.8135 25.8909C52.6323 25.6189 52.5182 25.625 52.1313 25.9275C51.6352 26.3153 51.1095 26.223 50.8375 25.7005L50.7408 25.5148H51.6724C52.8594 25.5148 52.9285 25.4798 52.9285 24.8795C52.9285 23.7685 51.8734 23.0542 50.8683 23.4849ZM54.6069 23.4612C54.3389 23.5661 53.9544 23.9241 53.8022 24.2106C53.6472 24.5025 53.6325 26.6694 53.7845 26.8189C53.9299 26.9619 54.1403 26.9407 54.3002 26.767C54.414 26.6432 54.439 26.4272 54.439 25.5663C54.439 24.537 54.4434 24.5124 54.6611 24.314C54.8068 24.1812 54.9818 24.1116 55.1701 24.1116C55.328 24.1116 55.5302 24.0731 55.6194 24.0262C55.8009 23.9307 55.8352 23.6194 55.681 23.4678C55.561 23.3497 54.9024 23.3457 54.6069 23.4612ZM56.4699 23.4678C56.4016 23.5349 56.3692 23.9216 56.3692 24.6679C56.3692 25.9554 56.4796 26.2736 57.0568 26.6496C57.3417 26.8351 57.4988 26.8765 57.9154 26.8759C58.1957 26.8756 58.4913 26.8437 58.572 26.8053C58.6887 26.7497 58.7189 26.7721 58.7189 26.9146C58.7189 27.1855 58.5743 27.3972 58.2906 27.5414C57.9398 27.7198 57.5913 27.6277 57.3111 27.2824C56.9017 26.7776 56.2782 27.0081 56.5685 27.5569C56.837 28.0646 57.3181 28.3447 57.9216 28.3447C58.4567 28.3447 58.9131 28.1367 59.2061 27.759L59.4322 27.4678L59.4575 25.4876C59.4845 23.3767 59.4837 23.3727 59.0734 23.37C58.7931 23.3681 58.7189 23.6551 58.7189 24.7424C58.7189 25.6825 58.7163 25.6951 58.4736 25.9338C58.158 26.2442 57.7386 26.2608 57.4019 25.9761C57.1689 25.7791 57.1661 25.7654 57.1384 24.6762C57.1229 24.0706 57.0711 23.5288 57.0231 23.472C56.9125 23.3408 56.6013 23.3385 56.4699 23.4678ZM62.5371 23.4862C61.9287 23.7544 61.5758 24.3627 61.5758 25.1433C61.5758 26.4717 62.7391 27.3042 63.8304 26.7566C64.2116 26.5653 64.3014 26.3292 64.0904 26.073C63.9417 25.8924 63.933 25.8916 63.6338 26.032C62.8839 26.3837 62.3274 26.0051 62.3274 25.1433C62.3274 24.3088 62.9071 23.89 63.5849 24.2348C63.8586 24.374 64.0546 24.3301 64.1788 24.1018C64.4471 23.6087 63.2649 23.1653 62.5371 23.4862ZM78.2256 23.4849C77.2513 23.9023 77.0261 25.614 77.8357 26.4501C78.4553 27.0901 79.5666 27.0522 80.11 26.3726C80.3258 26.1029 80.3302 25.9926 80.1323 25.8165C79.9229 25.63 79.8541 25.6418 79.4886 25.9275C79.1314 26.2066 78.8262 26.2407 78.5213 26.0354C78.2794 25.8727 78.191 25.7614 78.1891 25.6179C78.1882 25.5413 78.4358 25.5148 79.151 25.5148C80.0884 25.5148 80.1178 25.5092 80.2531 25.3062C80.5601 24.8453 80.0888 23.7339 79.4802 23.4838C79.1309 23.3402 78.5621 23.3407 78.2256 23.4849ZM81.8105 23.5458C81.5981 23.6493 81.3539 23.861 81.223 24.0552C81.0134 24.3665 80.9974 24.4573 80.9718 25.4814C80.9422 26.6654 81.0036 26.9179 81.321 26.9179C81.6695 26.9179 81.7124 26.7812 81.7124 25.6721C81.7124 24.6297 81.7137 24.6229 81.9559 24.368C82.281 24.0256 82.7302 24.0117 83.0715 24.3334C83.3051 24.5535 83.3069 24.563 83.3069 25.5999C83.3069 26.5073 83.3271 26.6627 83.4604 26.7813C83.6707 26.9685 83.8601 26.9526 84.0154 26.7345C84.1734 26.5126 84.1961 25.2568 84.0537 24.6043C83.8299 23.5775 82.7714 23.078 81.8105 23.5458ZM86.8267 24.1795C86.9229 24.4211 86.98 24.6533 86.9535 24.6954C86.8926 24.7923 86.2692 24.7962 86.2088 24.7C86.1466 24.601 86.5218 23.6084 86.5937 23.6815C86.6256 23.7137 86.7303 23.9378 86.8267 24.1795ZM51.9672 24.3142C52.3435 24.6842 52.2545 24.7719 51.5019 24.7719C50.891 24.7719 50.8306 24.7574 50.8306 24.61C50.8306 24.146 51.5942 23.9472 51.9672 24.3142ZM79.3566 24.3291C79.6652 24.7149 79.6011 24.7719 78.8592 24.7719C78.2856 24.7719 78.1879 24.7517 78.1879 24.6327C78.1879 24.5562 78.2699 24.4077 78.3703 24.3026C78.6351 24.0254 79.1243 24.0385 79.3566 24.3291ZM73.9153 24.2999C74.146 24.4741 74.2437 24.7462 74.2437 25.2142C74.2437 25.5811 74.2024 25.7154 74.0265 25.9211C73.7465 26.2484 73.25 26.2783 72.9526 25.9857C72.5749 25.6142 72.6076 24.5954 73.006 24.321C73.2249 24.1702 73.7281 24.1585 73.9153 24.2999ZM91.5163 25.7463C91.5665 26.0945 91.4017 26.1751 90.6395 26.1751H89.9364V25.8418V25.5086L90.7127 25.5323C91.451 25.5549 91.4902 25.5654 91.5163 25.7463Z" fill="white" fill-opacity="0.6"/>
<path fill-rule="evenodd" clip-rule="evenodd" d="M55.1629 7.12681C55.0593 7.14833 54.8979 7.26419 54.8042 7.38438C54.6384 7.59679 54.6337 7.71783 54.6337 11.7872V15.9716L54.8515 16.1778L55.0693 16.384H57.4331H59.7969L60.0007 16.1453C60.2752 15.8236 60.2738 15.383 59.9971 15.1042C59.79 14.8954 59.7897 14.8954 57.9714 14.8954H56.1529V14.3425V13.7896H57.4654C58.4362 13.7896 58.8384 13.758 59.0104 13.6684C59.2372 13.5502 59.4447 13.2219 59.4447 12.9815C59.4447 12.741 59.2372 12.4127 59.0104 12.2946C58.8384 12.2049 58.4362 12.1733 57.4654 12.1733H56.1529V10.4342V8.69505L57.975 8.66911L59.7973 8.64317L60.0008 8.40447C60.2699 8.08897 60.2699 7.6662 60.0008 7.3507L59.7972 7.112L57.5741 7.09984C56.3515 7.09312 55.2663 7.1052 55.1629 7.12681ZM70.9833 7.16228C70.2692 7.26759 69.4959 7.67343 68.9249 8.24268C68.0284 9.13628 67.72 10.0215 67.7183 11.7055C67.717 12.9266 67.8229 13.5387 68.1524 14.2149C68.8813 15.7106 70.5774 16.6172 72.1765 16.3661C73.2795 16.1929 73.6576 15.861 73.3603 15.3272C73.2006 15.0403 73.0381 15.0191 72.3147 15.1907C71.8197 15.3082 71.6201 15.3176 71.2155 15.2422C70.258 15.0638 69.5533 14.527 69.1412 13.662C68.9035 13.1628 68.8981 13.1204 68.8981 11.7404C68.898 10.3387 68.8997 10.3256 69.1542 9.81221C69.4333 9.24925 69.8685 8.80258 70.4345 8.49796C70.7431 8.33192 70.9227 8.30291 71.6411 8.30299C72.392 8.30299 72.5321 8.328 72.9105 8.52926C73.3585 8.76753 73.9479 9.35022 74.1558 9.76057C74.3825 10.2077 74.4686 10.8941 74.4686 12.2522C74.4686 13.6709 74.424 13.8422 74.0718 13.7743C73.935 13.748 73.9155 13.6025 73.8743 12.3C73.83 10.9032 73.8202 10.8395 73.5805 10.3973C73.0023 9.32989 71.7259 8.90865 70.6875 9.44251C70.2478 9.66862 69.6891 10.3016 69.58 10.697C69.5304 10.8774 69.4896 11.3938 69.4893 11.8447C69.4889 12.5771 69.5139 12.7126 69.7245 13.1191C70.2408 14.1149 71.3258 14.5358 72.4158 14.1628C72.681 14.0721 72.8266 14.0562 72.8463 14.116C73.0706 14.7939 74.2614 15.1363 74.8915 14.704C75.4989 14.2875 75.5207 14.2111 75.5509 12.4013C75.5677 11.3895 75.5406 10.5759 75.4795 10.2594C75.1754 8.6851 73.8614 7.41407 72.2741 7.15896C71.6651 7.06105 71.6703 7.06105 70.9833 7.16228ZM43.0769 7.2943C42.2607 7.58233 41.5302 8.26267 41.1425 9.09613C40.944 9.52282 40.918 9.68265 40.918 10.4721C40.918 11.2805 40.9407 11.4118 41.157 11.8559C41.7526 13.0783 42.9391 13.7896 44.3827 13.7896C45.1194 13.7896 45.4161 14.2402 44.9732 14.6866C44.7678 14.8936 44.7523 14.8954 43.1654 14.8954C42.2851 14.8954 41.5033 14.9192 41.4282 14.9482C41.2528 15.016 41.0446 15.4212 41.0446 15.6946C41.0446 15.8112 41.1362 16.0141 41.2481 16.1453L41.4516 16.384L42.9573 16.4118C44.8805 16.4472 45.2418 16.4014 45.7471 16.059C47.0708 15.162 46.9993 13.2444 45.6139 12.4854C45.2503 12.2861 45.0369 12.2361 44.3807 12.1966C43.4463 12.1405 43.0795 11.9738 42.7033 11.4343C42.2521 10.7875 42.3106 9.91803 42.8464 9.30301C43.2818 8.80326 43.6394 8.68969 44.785 8.68757C46.0759 8.68518 46.3539 8.54517 46.3593 7.89502C46.3613 7.66322 46.3035 7.51325 46.1548 7.36337C45.9532 7.16007 45.9148 7.15462 44.6989 7.15862C43.7976 7.16151 43.3463 7.19928 43.0769 7.2943ZM65.307 7.36337C65.1055 7.56634 65.0998 7.60734 65.0998 8.83873V10.1054L64.6145 9.93946C63.9405 9.70902 63.0285 9.76364 62.4333 10.07C61.8692 10.3603 61.2173 11.087 61.0192 11.6464C60.8894 12.0127 60.8683 12.282 60.8928 13.2569C60.9208 14.3679 60.935 14.4508 61.1724 14.8831C61.4666 15.419 62.0352 15.9533 62.5677 16.1943C63.1288 16.4482 64.2372 16.4452 64.7976 16.1883C65.4701 15.8801 65.9052 15.4633 66.2139 14.8314L66.4924 14.2615L66.5173 10.9205L66.542 7.57952L66.3312 7.36703C66.0455 7.07925 65.5905 7.07755 65.307 7.36337ZM76.9046 7.3171L76.7054 7.47965L76.6632 11.464C76.6399 13.6553 76.645 15.5957 76.6745 15.7757C76.746 16.214 76.9288 16.3802 77.3391 16.3802C77.5751 16.3802 77.7318 16.3231 77.8655 16.1886C78.0491 16.0038 78.0573 15.9283 78.098 14.0639C78.1271 12.7327 78.1734 12.0723 78.2468 11.9429C78.539 11.4281 79.3253 11.1273 79.8891 11.3148C80.26 11.4382 80.6941 11.8901 80.8004 12.2633C80.8461 12.4238 80.8846 13.3209 80.8861 14.2568C80.8889 16.0377 80.9059 16.1275 81.2787 16.3276C81.5777 16.4881 81.8086 16.4429 82.0782 16.1712L82.3317 15.9158L82.3038 13.8957L82.276 11.8756L81.9865 11.3375C81.4794 10.3948 80.6918 9.87635 79.6684 9.81144C79.2182 9.78295 78.9477 9.81476 78.5834 9.93938L78.098 10.1054V8.87862V7.65182L77.8513 7.40318C77.5597 7.10928 77.1995 7.07653 76.9046 7.3171ZM49.5888 9.77682C48.9775 9.99654 48.4125 10.5053 48.0546 11.1584L47.7547 11.7055V15.1368V18.5682L47.954 18.7308C48.2377 18.9623 48.7317 18.9457 48.9639 18.6966C49.1356 18.5123 49.1474 18.4172 49.1474 17.208C49.1474 16.4974 49.1605 15.9162 49.1766 15.9162C49.1927 15.9162 49.3347 15.9809 49.4921 16.0601C49.9606 16.2957 51.0308 16.311 51.611 16.0904C52.2461 15.849 52.8677 15.2549 53.1729 14.5977C53.3958 14.1174 53.4098 14.0195 53.4098 12.9389C53.4098 11.876 53.3932 11.755 53.1874 11.3125C52.687 10.2371 51.8839 9.69507 50.718 9.64582C50.2052 9.62413 49.9221 9.65697 49.5888 9.77682ZM85.2153 9.73829C84.4351 9.99646 83.8081 10.578 83.4269 11.3976C83.2209 11.8401 83.2045 11.9609 83.2045 13.0258C83.2045 14.1522 83.2101 14.1876 83.4796 14.7391C83.8003 15.3956 84.2586 15.8457 84.9246 16.1584C85.554 16.4539 86.619 16.4699 87.232 16.1931C87.7572 15.956 88.4418 15.301 88.7203 14.7695C88.9344 14.3607 88.944 14.2862 88.944 13.024C88.944 11.7971 88.9296 11.6761 88.7374 11.2824C88.4716 10.7379 87.9374 10.2026 87.372 9.91377C86.8275 9.6357 85.7825 9.55072 85.2153 9.73829ZM92.0669 9.7012C91.3427 9.87975 90.5701 10.5456 90.2352 11.2802C90.0522 11.6813 90.0397 11.8249 90.0148 13.8119L89.9883 15.9185L90.2404 16.1725C90.5053 16.4395 90.6932 16.4798 91.0445 16.3452C91.4692 16.1824 91.5182 15.9252 91.5189 13.8576C91.5194 12.1426 91.5347 11.9374 91.6785 11.7175C91.9266 11.3383 92.2687 11.1538 92.7253 11.1532C93.2182 11.1525 93.5511 11.3148 93.8116 11.6829C94.0021 11.9521 94.0091 12.0233 94.0348 13.9781L94.0614 15.9955L94.3156 16.211C94.6375 16.484 94.8982 16.484 95.22 16.2111L95.4742 15.9956L95.5008 14.0207C95.5239 12.3131 95.548 12.0078 95.6793 11.7655C95.8916 11.3736 96.2863 11.1533 96.7767 11.1529C97.282 11.1525 97.6121 11.3198 97.8404 11.6922C98.0058 11.9618 98.0174 12.1012 98.0174 13.8082C98.0174 15.8096 98.0681 16.1055 98.4444 16.3015C98.8015 16.4876 99.015 16.4551 99.2964 16.1715L99.5495 15.9164L99.522 13.7684C99.4947 11.6331 99.4931 11.6179 99.2708 11.1951C98.7915 10.2838 97.9805 9.7291 97.0074 9.64693C96.3096 9.58789 95.6387 9.77563 95.124 10.1738L94.775 10.4439L94.4091 10.1625C93.805 9.69771 92.8468 9.50904 92.0669 9.7012ZM102.406 9.70094C101.71 9.91539 101.068 10.4625 100.73 11.1302C100.272 12.0335 100.274 13.9315 100.732 14.837C100.979 15.3246 101.591 15.8993 102.137 16.1554C102.541 16.3452 102.732 16.3807 103.341 16.3788C103.963 16.3768 104.133 16.3424 104.56 16.1319C104.833 15.9974 105.219 15.7227 105.419 15.5212C105.736 15.2019 105.783 15.1077 105.783 14.7849C105.783 14.3062 105.531 14.0448 105.071 14.0448C104.815 14.0448 104.697 14.1029 104.486 14.3317C103.954 14.9083 103.29 15.0496 102.653 14.7219C102.333 14.5574 101.985 14.1276 101.985 13.8959C101.985 13.8145 102.369 13.7896 103.626 13.7896C105.407 13.7896 105.629 13.7456 105.831 13.3519C106.084 12.8585 105.907 11.5677 105.496 10.9116C105.181 10.4087 104.546 9.89208 104.067 9.74858C103.621 9.61511 102.765 9.59061 102.406 9.70094ZM71.9522 10.39C72.1233 10.4379 72.3607 10.5937 72.4797 10.7363C72.6767 10.9722 72.6962 11.0638 72.6962 11.7558C72.6962 12.4955 72.6887 12.5242 72.4218 12.8155C72.0887 13.1791 71.6868 13.269 71.238 13.08C70.7698 12.8828 70.5867 12.5134 70.5864 11.765C70.5859 10.8294 70.8265 10.4842 71.5989 10.3123C71.6221 10.3071 71.7811 10.3421 71.9522 10.39ZM51.1125 11.1846C51.734 11.4527 52.0131 11.9962 52.0131 12.9389C52.0131 13.6963 51.894 14.0526 51.5243 14.4007C50.9204 14.9694 50.1739 14.9461 49.5973 14.3405C49.2977 14.026 49.2364 13.899 49.1854 13.4873C49.0877 12.6993 49.1952 12.0127 49.4706 11.665C49.9056 11.1158 50.5296 10.9333 51.1125 11.1846ZM103.836 11.3111C104.084 11.4913 104.314 11.806 104.389 12.067L104.444 12.2584H103.171H101.898L102.029 11.9406C102.289 11.3158 102.736 11.0345 103.335 11.1195C103.497 11.1425 103.723 11.2288 103.836 11.3111ZM86.8408 11.3269C86.9947 11.4229 87.2081 11.643 87.315 11.8161C87.4854 12.0924 87.5091 12.2399 87.5091 13.024C87.5091 13.7965 87.484 13.9578 87.3233 14.2181C86.8019 15.0632 85.5639 15.1255 84.967 14.3369C84.7309 14.0249 84.7238 13.9864 84.7238 13.0156C84.7238 11.9056 84.7892 11.7327 85.3559 11.344C85.7296 11.0877 86.4433 11.0795 86.8408 11.3269ZM64.3103 11.4138C64.5223 11.5172 64.7511 11.7192 64.8645 11.9029C65.0339 12.1774 65.0576 12.3262 65.0576 13.1128C65.0576 14.1133 64.9938 14.2834 64.4662 14.6889C63.8409 15.1696 62.7936 14.909 62.4542 14.1883C62.3541 13.9758 62.3144 13.6585 62.3144 13.0707C62.3144 12.0218 62.458 11.7177 63.1164 11.3716C63.4632 11.1894 63.8806 11.2042 64.3103 11.4138Z" fill="#322E6B"/>
<path fill-rule="evenodd" clip-rule="evenodd" d="M55.1629 7.12681C55.0593 7.14833 54.8979 7.26419 54.8042 7.38438C54.6384 7.59679 54.6337 7.71783 54.6337 11.7872V15.9716L54.8515 16.1778L55.0693 16.384H57.4331H59.7969L60.0007 16.1453C60.2752 15.8236 60.2738 15.383 59.9971 15.1042C59.79 14.8954 59.7897 14.8954 57.9714 14.8954H56.1529V14.3425V13.7896H57.4654C58.4362 13.7896 58.8384 13.758 59.0104 13.6684C59.2372 13.5502 59.4447 13.2219 59.4447 12.9815C59.4447 12.741 59.2372 12.4127 59.0104 12.2946C58.8384 12.2049 58.4362 12.1733 57.4654 12.1733H56.1529V10.4342V8.69505L57.975 8.66911L59.7973 8.64317L60.0008 8.40447C60.2699 8.08897 60.2699 7.6662 60.0008 7.3507L59.7972 7.112L57.5741 7.09984C56.3515 7.09312 55.2663 7.1052 55.1629 7.12681ZM70.9833 7.16228C70.2692 7.26759 69.4959 7.67343 68.9249 8.24268C68.0284 9.13628 67.72 10.0215 67.7183 11.7055C67.717 12.9266 67.8229 13.5387 68.1524 14.2149C68.8813 15.7106 70.5774 16.6172 72.1765 16.3661C73.2795 16.1929 73.6576 15.861 73.3603 15.3272C73.2006 15.0403 73.0381 15.0191 72.3147 15.1907C71.8197 15.3082 71.6201 15.3176 71.2155 15.2422C70.258 15.0638 69.5533 14.527 69.1412 13.662C68.9035 13.1628 68.8981 13.1204 68.8981 11.7404C68.898 10.3387 68.8997 10.3256 69.1542 9.81221C69.4333 9.24925 69.8685 8.80258 70.4345 8.49796C70.7431 8.33192 70.9227 8.30291 71.6411 8.30299C72.392 8.30299 72.5321 8.328 72.9105 8.52926C73.3585 8.76753 73.9479 9.35022 74.1558 9.76057C74.3825 10.2077 74.4686 10.8941 74.4686 12.2522C74.4686 13.6709 74.424 13.8422 74.0718 13.7743C73.935 13.748 73.9155 13.6025 73.8743 12.3C73.83 10.9032 73.8202 10.8395 73.5805 10.3973C73.0023 9.32989 71.7259 8.90865 70.6875 9.44251C70.2478 9.66862 69.6891 10.3016 69.58 10.697C69.5304 10.8774 69.4896 11.3938 69.4893 11.8447C69.4889 12.5771 69.5139 12.7126 69.7245 13.1191C70.2408 14.1149 71.3258 14.5358 72.4158 14.1628C72.681 14.0721 72.8266 14.0562 72.8463 14.116C73.0706 14.7939 74.2614 15.1363 74.8915 14.704C75.4989 14.2875 75.5207 14.2111 75.5509 12.4013C75.5677 11.3895 75.5406 10.5759 75.4795 10.2594C75.1754 8.6851 73.8614 7.41407 72.2741 7.15896C71.6651 7.06105 71.6703 7.06105 70.9833 7.16228ZM43.0769 7.2943C42.2607 7.58233 41.5302 8.26267 41.1425 9.09613C40.944 9.52282 40.918 9.68265 40.918 10.4721C40.918 11.2805 40.9407 11.4118 41.157 11.8559C41.7526 13.0783 42.9391 13.7896 44.3827 13.7896C45.1194 13.7896 45.4161 14.2402 44.9732 14.6866C44.7678 14.8936 44.7523 14.8954 43.1654 14.8954C42.2851 14.8954 41.5033 14.9192 41.4282 14.9482C41.2528 15.016 41.0446 15.4212 41.0446 15.6946C41.0446 15.8112 41.1362 16.0141 41.2481 16.1453L41.4516 16.384L42.9573 16.4118C44.8805 16.4472 45.2418 16.4014 45.7471 16.059C47.0708 15.162 46.9993 13.2444 45.6139 12.4854C45.2503 12.2861 45.0369 12.2361 44.3807 12.1966C43.4463 12.1405 43.0795 11.9738 42.7033 11.4343C42.2521 10.7875 42.3106 9.91803 42.8464 9.30301C43.2818 8.80326 43.6394 8.68969 44.785 8.68757C46.0759 8.68518 46.3539 8.54517 46.3593 7.89502C46.3613 7.66322 46.3035 7.51325 46.1548 7.36337C45.9532 7.16007 45.9148 7.15462 44.6989 7.15862C43.7976 7.16151 43.3463 7.19928 43.0769 7.2943ZM65.307 7.36337C65.1055 7.56634 65.0998 7.60734 65.0998 8.83873V10.1054L64.6145 9.93946C63.9405 9.70902 63.0285 9.76364 62.4333 10.07C61.8692 10.3603 61.2173 11.087 61.0192 11.6464C60.8894 12.0127 60.8683 12.282 60.8928 13.2569C60.9208 14.3679 60.935 14.4508 61.1724 14.8831C61.4666 15.419 62.0352 15.9533 62.5677 16.1943C63.1288 16.4482 64.2372 16.4452 64.7976 16.1883C65.4701 15.8801 65.9052 15.4633 66.2139 14.8314L66.4924 14.2615L66.5173 10.9205L66.542 7.57952L66.3312 7.36703C66.0455 7.07925 65.5905 7.07755 65.307 7.36337ZM76.9046 7.3171L76.7054 7.47965L76.6632 11.464C76.6399 13.6553 76.645 15.5957 76.6745 15.7757C76.746 16.214 76.9288 16.3802 77.3391 16.3802C77.5751 16.3802 77.7318 16.3231 77.8655 16.1886C78.0491 16.0038 78.0573 15.9283 78.098 14.0639C78.1271 12.7327 78.1734 12.0723 78.2468 11.9429C78.539 11.4281 79.3253 11.1273 79.8891 11.3148C80.26 11.4382 80.6941 11.8901 80.8004 12.2633C80.8461 12.4238 80.8846 13.3209 80.8861 14.2568C80.8889 16.0377 80.9059 16.1275 81.2787 16.3276C81.5777 16.4881 81.8086 16.4429 82.0782 16.1712L82.3317 15.9158L82.3038 13.8957L82.276 11.8756L81.9865 11.3375C81.4794 10.3948 80.6918 9.87635 79.6684 9.81144C79.2182 9.78295 78.9477 9.81476 78.5834 9.93938L78.098 10.1054V8.87862V7.65182L77.8513 7.40318C77.5597 7.10928 77.1995 7.07653 76.9046 7.3171ZM49.5888 9.77682C48.9775 9.99654 48.4125 10.5053 48.0546 11.1584L47.7547 11.7055V15.1368V18.5682L47.954 18.7308C48.2377 18.9623 48.7317 18.9457 48.9639 18.6966C49.1356 18.5123 49.1474 18.4172 49.1474 17.208C49.1474 16.4974 49.1605 15.9162 49.1766 15.9162C49.1927 15.9162 49.3347 15.9809 49.4921 16.0601C49.9606 16.2957 51.0308 16.311 51.611 16.0904C52.2461 15.849 52.8677 15.2549 53.1729 14.5977C53.3958 14.1174 53.4098 14.0195 53.4098 12.9389C53.4098 11.876 53.3932 11.755 53.1874 11.3125C52.687 10.2371 51.8839 9.69507 50.718 9.64582C50.2052 9.62413 49.9221 9.65697 49.5888 9.77682ZM85.2153 9.73829C84.4351 9.99646 83.8081 10.578 83.4269 11.3976C83.2209 11.8401 83.2045 11.9609 83.2045 13.0258C83.2045 14.1522 83.2101 14.1876 83.4796 14.7391C83.8003 15.3956 84.2586 15.8457 84.9246 16.1584C85.554 16.4539 86.619 16.4699 87.232 16.1931C87.7572 15.956 88.4418 15.301 88.7203 14.7695C88.9344 14.3607 88.944 14.2862 88.944 13.024C88.944 11.7971 88.9296 11.6761 88.7374 11.2824C88.4716 10.7379 87.9374 10.2026 87.372 9.91377C86.8275 9.6357 85.7825 9.55072 85.2153 9.73829ZM92.0669 9.7012C91.3427 9.87975 90.5701 10.5456 90.2352 11.2802C90.0522 11.6813 90.0397 11.8249 90.0148 13.8119L89.9883 15.9185L90.2404 16.1725C90.5053 16.4395 90.6932 16.4798 91.0445 16.3452C91.4692 16.1824 91.5182 15.9252 91.5189 13.8576C91.5194 12.1426 91.5347 11.9374 91.6785 11.7175C91.9266 11.3383 92.2687 11.1538 92.7253 11.1532C93.2182 11.1525 93.5511 11.3148 93.8116 11.6829C94.0021 11.9521 94.0091 12.0233 94.0348 13.9781L94.0614 15.9955L94.3156 16.211C94.6375 16.484 94.8982 16.484 95.22 16.2111L95.4742 15.9956L95.5008 14.0207C95.5239 12.3131 95.548 12.0078 95.6793 11.7655C95.8916 11.3736 96.2863 11.1533 96.7767 11.1529C97.282 11.1525 97.6121 11.3198 97.8404 11.6922C98.0058 11.9618 98.0174 12.1012 98.0174 13.8082C98.0174 15.8096 98.0681 16.1055 98.4444 16.3015C98.8015 16.4876 99.015 16.4551 99.2964 16.1715L99.5495 15.9164L99.522 13.7684C99.4947 11.6331 99.4931 11.6179 99.2708 11.1951C98.7915 10.2838 97.9805 9.7291 97.0074 9.64693C96.3096 9.58789 95.6387 9.77563 95.124 10.1738L94.775 10.4439L94.4091 10.1625C93.805 9.69771 92.8468 9.50904 92.0669 9.7012ZM102.406 9.70094C101.71 9.91539 101.068 10.4625 100.73 11.1302C100.272 12.0335 100.274 13.9315 100.732 14.837C100.979 15.3246 101.591 15.8993 102.137 16.1554C102.541 16.3452 102.732 16.3807 103.341 16.3788C103.963 16.3768 104.133 16.3424 104.56 16.1319C104.833 15.9974 105.219 15.7227 105.419 15.5212C105.736 15.2019 105.783 15.1077 105.783 14.7849C105.783 14.3062 105.531 14.0448 105.071 14.0448C104.815 14.0448 104.697 14.1029 104.486 14.3317C103.954 14.9083 103.29 15.0496 102.653 14.7219C102.333 14.5574 101.985 14.1276 101.985 13.8959C101.985 13.8145 102.369 13.7896 103.626 13.7896C105.407 13.7896 105.629 13.7456 105.831 13.3519C106.084 12.8585 105.907 11.5677 105.496 10.9116C105.181 10.4087 104.546 9.89208 104.067 9.74858C103.621 9.61511 102.765 9.59061 102.406 9.70094ZM71.9522 10.39C72.1233 10.4379 72.3607 10.5937 72.4797 10.7363C72.6767 10.9722 72.6962 11.0638 72.6962 11.7558C72.6962 12.4955 72.6887 12.5242 72.4218 12.8155C72.0887 13.1791 71.6868 13.269 71.238 13.08C70.7698 12.8828 70.5867 12.5134 70.5864 11.765C70.5859 10.8294 70.8265 10.4842 71.5989 10.3123C71.6221 10.3071 71.7811 10.3421 71.9522 10.39ZM51.1125 11.1846C51.734 11.4527 52.0131 11.9962 52.0131 12.9389C52.0131 13.6963 51.894 14.0526 51.5243 14.4007C50.9204 14.9694 50.1739 14.9461 49.5973 14.3405C49.2977 14.026 49.2364 13.899 49.1854 13.4873C49.0877 12.6993 49.1952 12.0127 49.4706 11.665C49.9056 11.1158 50.5296 10.9333 51.1125 11.1846ZM103.836 11.3111C104.084 11.4913 104.314 11.806 104.389 12.067L104.444 12.2584H103.171H101.898L102.029 11.9406C102.289 11.3158 102.736 11.0345 103.335 11.1195C103.497 11.1425 103.723 11.2288 103.836 11.3111ZM86.8408 11.3269C86.9947 11.4229 87.2081 11.643 87.315 11.8161C87.4854 12.0924 87.5091 12.2399 87.5091 13.024C87.5091 13.7965 87.484 13.9578 87.3233 14.2181C86.8019 15.0632 85.5639 15.1255 84.967 14.3369C84.7309 14.0249 84.7238 13.9864 84.7238 13.0156C84.7238 11.9056 84.7892 11.7327 85.3559 11.344C85.7296 11.0877 86.4433 11.0795 86.8408 11.3269ZM64.3103 11.4138C64.5223 11.5172 64.7511 11.7192 64.8645 11.9029C65.0339 12.1774 65.0576 12.3262 65.0576 13.1128C65.0576 14.1133 64.9938 14.2834 64.4662 14.6889C63.8409 15.1696 62.7936 14.909 62.4542 14.1883C62.3541 13.9758 62.3144 13.6585 62.3144 13.0707C62.3144 12.0218 62.458 11.7177 63.1164 11.3716C63.4632 11.1894 63.8806 11.2042 64.3103 11.4138Z" fill="white" fill-opacity="0.3"/>
<path fill-rule="evenodd" clip-rule="evenodd" d="M10.8163 15.9121C10.6416 16.0145 10.4658 16.2233 10.3593 16.4549C10.127 16.9597 10.2022 17.3276 10.6195 17.7289C11.037 18.1301 11.4197 18.2024 11.9447 17.9791C12.4157 17.7788 12.6824 17.4024 12.6824 16.9378C12.6824 16.0333 11.6127 15.4454 10.8163 15.9121ZM16.559 15.906C15.2403 16.679 16.2623 18.5807 17.6738 17.9804C18.8664 17.4733 18.4806 15.7457 17.1747 15.7457C16.986 15.7457 16.7098 15.8177 16.559 15.906ZM22.2859 15.9092C21.4098 16.4226 21.4765 17.5845 22.4046 17.9791C22.9282 18.2018 23.3129 18.13 23.724 17.7329C24.1355 17.3356 24.2151 16.9442 23.9861 16.4463C23.6863 15.7947 22.9032 15.5473 22.2859 15.9092Z" fill="#322E6B"/>
<path fill-rule="evenodd" clip-rule="evenodd" d="M29.7673 18.793C29.322 21.7795 27.5109 24.8519 25.0499 26.7957C23.1834 28.2699 21.3571 29.0717 18.759 29.5572L18.2656 29.6494V31.2952V32.9409L18.8019 32.8826C20.003 32.7519 21.7366 32.3059 22.9452 31.8166L23.549 31.5721L26.9781 33.435C28.8641 34.4597 31.1216 35.6871 31.9946 36.1627C32.8677 36.6383 33.5937 37.0162 33.6079 37.0026C33.6348 36.9766 33.3938 36.4589 32.5297 34.6863C32.2477 34.1078 31.6591 32.8961 31.2216 31.9936C30.7843 31.0911 30.1242 29.7351 29.755 28.9802L29.0837 27.6076L29.5871 27.0028C31.6106 24.5713 32.8335 21.6695 33.2199 18.3829L33.2521 18.1094H31.5606H29.8692L29.7673 18.793Z" fill="#EC227C"/>
<path fill-rule="evenodd" clip-rule="evenodd" d="M1.10976 18.3883C1.29566 20.0459 1.57754 21.2877 2.08886 22.7012C2.3865 23.5239 3.14401 25.0652 3.60607 25.7882L3.98818 26.3862L3.51173 26.4883C2.21146 26.767 1.16522 27.8166 0.808029 29.2008C0.744155 29.4483 0.71671 29.9007 0.73762 30.361C0.7658 30.98 0.817993 31.2189 1.02832 31.6911C1.51799 32.7907 2.41517 33.5233 3.58614 33.7798C4.94416 34.0773 6.36132 33.4642 7.172 32.2283C7.44873 31.8065 7.74801 30.9798 7.74801 30.6372C7.74801 30.4974 7.76998 30.383 7.79685 30.383C7.82373 30.383 8.18206 30.6021 8.59324 30.87C10.4052 32.0503 12.7781 32.9234 14.8746 33.1813L15.3443 33.239V31.5596V29.8802L14.8746 29.7855C12.6327 29.3335 10.9706 28.5966 9.30443 27.3157C8.4726 26.6763 7.1689 25.2705 6.53506 24.3295C5.52614 22.8318 4.66629 20.6174 4.39478 18.8175L4.28803 18.1094H2.68325H1.07847L1.10976 18.3883Z" fill="#6A53A2"/>
<path fill-rule="evenodd" clip-rule="evenodd" d="M15.0724 0.408381C13.457 0.608675 12.2467 0.912372 10.8691 1.46327C10.0674 1.78395 8.56526 2.60008 7.86071 3.09791L7.27794 3.50959L7.1784 2.99627C6.9068 1.59536 5.88388 0.468135 4.53483 0.0833001C4.29368 0.0144821 3.85277 -0.0150867 3.40418 0.00744195C2.80092 0.0378028 2.56813 0.0940355 2.10791 0.320642C1.03631 0.848217 0.3223 1.81484 0.0722799 3.07644C-0.217639 4.53957 0.379932 6.06641 1.58436 6.93984C1.9954 7.23799 2.80117 7.56043 3.135 7.56043C3.27126 7.56043 3.38276 7.5841 3.38276 7.61306C3.38276 7.64201 3.16921 8.02808 2.90815 8.47108C1.75784 10.4232 0.906906 12.9798 0.655632 15.2386L0.599422 15.7447H2.23605L3.87277 15.7447L3.96503 15.2386C4.40551 12.8232 5.1237 11.0325 6.37204 9.23732C6.99521 8.3411 8.36526 6.93649 9.28228 6.25359C10.7419 5.16659 12.9 4.24018 14.6542 3.94766L15.3442 3.83265V2.10366V0.374677L15.0724 0.408381Z" fill="#63C3A8"/>
<path fill-rule="evenodd" clip-rule="evenodd" d="M33.2114 15.4632C33.0162 13.8057 32.7202 12.5638 32.1833 11.1503C31.8708 10.3276 31.0754 8.78632 30.5902 8.06338L30.189 7.46541L30.6893 7.36327C32.0546 7.08458 33.1531 6.03497 33.5282 4.65072C33.5953 4.40327 33.6241 3.95086 33.6021 3.49056C33.5725 2.87156 33.5177 2.6327 33.2969 2.16046C32.7827 1.0609 31.8407 0.328266 30.6112 0.071722C29.1853 -0.225762 27.6972 0.387402 26.846 1.62326C26.5555 2.04502 26.2412 2.87182 26.2412 3.21436C26.2412 3.35418 26.2181 3.46859 26.1899 3.46859C26.1617 3.46859 25.7855 3.24947 25.3537 2.98159C23.4512 1.80127 20.9597 0.928127 18.7583 0.670296L18.2651 0.612618V2.29195V3.97138L18.7583 4.06605C21.1122 4.51802 22.8575 5.25496 24.607 6.53587C25.4804 7.1753 26.8493 8.5811 27.5148 9.52205C28.5742 11.0198 29.477 13.2342 29.7621 15.0341L29.8742 15.7422H31.5592H33.2442L33.2114 15.4632Z" fill="#F9BA15"/>
</svg>
